<mxfile host="app.diagrams.net" agent="Mozilla/5.0 (X11; Linux x86_64) AppleWebKit/537.36 (KHTML, like Gecko) Chrome/135.0.0.0 Safari/537.36" version="27.0.6">
  <diagram name="Сторінка-1" id="hAsa_eh7DNpkawDo0Cvw">
    <mxGraphModel dx="1471" dy="666" grid="1" gridSize="10" guides="1" tooltips="1" connect="1" arrows="1" fold="1" page="1" pageScale="1" pageWidth="827" pageHeight="1169" math="0" shadow="0">
      <root>
        <mxCell id="0" />
        <mxCell id="1" parent="0" />
        <mxCell id="VDMWnQjMIZRb_93i3J9U-1" value="groups" style="swimlane;fontStyle=0;childLayout=stackLayout;horizontal=1;startSize=30;horizontalStack=0;resizeParent=1;resizeParentMax=0;resizeLast=0;collapsible=1;marginBottom=0;whiteSpace=wrap;html=1;" parent="1" vertex="1">
          <mxGeometry x="50" y="120" width="210" height="150" as="geometry" />
        </mxCell>
        <mxCell id="VDMWnQjMIZRb_93i3J9U-5" value="id int unsigned PK AI&amp;nbsp;" style="text;strokeColor=none;fillColor=none;align=left;verticalAlign=middle;spacingLeft=4;spacingRight=4;overflow=hidden;points=[[0,0.5],[1,0.5]];portConstraint=eastwest;rotatable=0;whiteSpace=wrap;html=1;" parent="VDMWnQjMIZRb_93i3J9U-1" vertex="1">
          <mxGeometry y="30" width="210" height="30" as="geometry" />
        </mxCell>
        <mxCell id="VDMWnQjMIZRb_93i3J9U-2" value="name varchar(100) U NN" style="text;strokeColor=none;fillColor=none;align=left;verticalAlign=middle;spacingLeft=4;spacingRight=4;overflow=hidden;points=[[0,0.5],[1,0.5]];portConstraint=eastwest;rotatable=0;whiteSpace=wrap;html=1;" parent="VDMWnQjMIZRb_93i3J9U-1" vertex="1">
          <mxGeometry y="60" width="210" height="30" as="geometry" />
        </mxCell>
        <mxCell id="VDMWnQjMIZRb_93i3J9U-3" value="teacher_id tinyint unsigned FK NN" style="text;strokeColor=none;fillColor=none;align=left;verticalAlign=middle;spacingLeft=4;spacingRight=4;overflow=hidden;points=[[0,0.5],[1,0.5]];portConstraint=eastwest;rotatable=0;whiteSpace=wrap;html=1;" parent="VDMWnQjMIZRb_93i3J9U-1" vertex="1">
          <mxGeometry y="90" width="210" height="30" as="geometry" />
        </mxCell>
        <mxCell id="VDMWnQjMIZRb_93i3J9U-4" value="chat varchar(255) U NN" style="text;strokeColor=none;fillColor=none;align=left;verticalAlign=middle;spacingLeft=4;spacingRight=4;overflow=hidden;points=[[0,0.5],[1,0.5]];portConstraint=eastwest;rotatable=0;whiteSpace=wrap;html=1;" parent="VDMWnQjMIZRb_93i3J9U-1" vertex="1">
          <mxGeometry y="120" width="210" height="30" as="geometry" />
        </mxCell>
        <mxCell id="VDMWnQjMIZRb_93i3J9U-6" value="teachers" style="swimlane;fontStyle=0;childLayout=stackLayout;horizontal=1;startSize=30;horizontalStack=0;resizeParent=1;resizeParentMax=0;resizeLast=0;collapsible=1;marginBottom=0;whiteSpace=wrap;html=1;" parent="1" vertex="1">
          <mxGeometry x="340" y="120" width="180" height="150" as="geometry" />
        </mxCell>
        <mxCell id="VDMWnQjMIZRb_93i3J9U-7" value="id tinyint&amp;nbsp;unsigned PK AI&amp;nbsp;" style="text;strokeColor=none;fillColor=none;align=left;verticalAlign=middle;spacingLeft=4;spacingRight=4;overflow=hidden;points=[[0,0.5],[1,0.5]];portConstraint=eastwest;rotatable=0;whiteSpace=wrap;html=1;" parent="VDMWnQjMIZRb_93i3J9U-6" vertex="1">
          <mxGeometry y="30" width="180" height="30" as="geometry" />
        </mxCell>
        <mxCell id="VDMWnQjMIZRb_93i3J9U-8" value="name varchar(100) NN" style="text;strokeColor=none;fillColor=none;align=left;verticalAlign=middle;spacingLeft=4;spacingRight=4;overflow=hidden;points=[[0,0.5],[1,0.5]];portConstraint=eastwest;rotatable=0;whiteSpace=wrap;html=1;" parent="VDMWnQjMIZRb_93i3J9U-6" vertex="1">
          <mxGeometry y="60" width="180" height="30" as="geometry" />
        </mxCell>
        <mxCell id="VDMWnQjMIZRb_93i3J9U-9" value="second_name varchar(100) NN" style="text;strokeColor=none;fillColor=none;align=left;verticalAlign=middle;spacingLeft=4;spacingRight=4;overflow=hidden;points=[[0,0.5],[1,0.5]];portConstraint=eastwest;rotatable=0;whiteSpace=wrap;html=1;" parent="VDMWnQjMIZRb_93i3J9U-6" vertex="1">
          <mxGeometry y="90" width="180" height="30" as="geometry" />
        </mxCell>
        <mxCell id="H9SGIsv_MsNLZIggbhcU-1" value="phones varchar(100) NN" style="text;strokeColor=none;fillColor=none;align=left;verticalAlign=middle;spacingLeft=4;spacingRight=4;overflow=hidden;points=[[0,0.5],[1,0.5]];portConstraint=eastwest;rotatable=0;whiteSpace=wrap;html=1;" vertex="1" parent="VDMWnQjMIZRb_93i3J9U-6">
          <mxGeometry y="120" width="180" height="30" as="geometry" />
        </mxCell>
        <mxCell id="H9SGIsv_MsNLZIggbhcU-2" style="edgeStyle=orthogonalEdgeStyle;rounded=0;orthogonalLoop=1;jettySize=auto;html=1;exitX=1;exitY=0.5;exitDx=0;exitDy=0;entryX=0;entryY=0.5;entryDx=0;entryDy=0;" edge="1" parent="1" source="VDMWnQjMIZRb_93i3J9U-3" target="VDMWnQjMIZRb_93i3J9U-7">
          <mxGeometry relative="1" as="geometry" />
        </mxCell>
        <mxCell id="H9SGIsv_MsNLZIggbhcU-4" value="students" style="swimlane;fontStyle=0;childLayout=stackLayout;horizontal=1;startSize=30;horizontalStack=0;resizeParent=1;resizeParentMax=0;resizeLast=0;collapsible=1;marginBottom=0;whiteSpace=wrap;html=1;" vertex="1" parent="1">
          <mxGeometry x="610" y="120" width="190" height="150" as="geometry" />
        </mxCell>
        <mxCell id="H9SGIsv_MsNLZIggbhcU-5" value="id int unsigned PK AI&amp;nbsp;" style="text;strokeColor=none;fillColor=none;align=left;verticalAlign=middle;spacingLeft=4;spacingRight=4;overflow=hidden;points=[[0,0.5],[1,0.5]];portConstraint=eastwest;rotatable=0;whiteSpace=wrap;html=1;" vertex="1" parent="H9SGIsv_MsNLZIggbhcU-4">
          <mxGeometry y="30" width="190" height="30" as="geometry" />
        </mxCell>
        <mxCell id="H9SGIsv_MsNLZIggbhcU-6" value="name varchar(100) NN" style="text;strokeColor=none;fillColor=none;align=left;verticalAlign=middle;spacingLeft=4;spacingRight=4;overflow=hidden;points=[[0,0.5],[1,0.5]];portConstraint=eastwest;rotatable=0;whiteSpace=wrap;html=1;" vertex="1" parent="H9SGIsv_MsNLZIggbhcU-4">
          <mxGeometry y="60" width="190" height="30" as="geometry" />
        </mxCell>
        <mxCell id="H9SGIsv_MsNLZIggbhcU-7" value="second_name varchar(100) NN" style="text;strokeColor=none;fillColor=none;align=left;verticalAlign=middle;spacingLeft=4;spacingRight=4;overflow=hidden;points=[[0,0.5],[1,0.5]];portConstraint=eastwest;rotatable=0;whiteSpace=wrap;html=1;" vertex="1" parent="H9SGIsv_MsNLZIggbhcU-4">
          <mxGeometry y="90" width="190" height="30" as="geometry" />
        </mxCell>
        <mxCell id="H9SGIsv_MsNLZIggbhcU-8" value="phone varchar(15) U NN" style="text;strokeColor=none;fillColor=none;align=left;verticalAlign=middle;spacingLeft=4;spacingRight=4;overflow=hidden;points=[[0,0.5],[1,0.5]];portConstraint=eastwest;rotatable=0;whiteSpace=wrap;html=1;" vertex="1" parent="H9SGIsv_MsNLZIggbhcU-4">
          <mxGeometry y="120" width="190" height="30" as="geometry" />
        </mxCell>
        <mxCell id="H9SGIsv_MsNLZIggbhcU-11" value="students_groups" style="swimlane;childLayout=stackLayout;horizontal=1;startSize=30;horizontalStack=0;resizeParent=1;resizeParentMax=0;resizeLast=0;collapsible=1;marginBottom=0;whiteSpace=wrap;html=1;fillColor=default;" vertex="1" parent="1">
          <mxGeometry x="340" y="360" width="180" height="120" as="geometry" />
        </mxCell>
        <mxCell id="H9SGIsv_MsNLZIggbhcU-12" value="id int unsigned PK AI&amp;nbsp;" style="text;strokeColor=light-dark(transparent,#FFFFFF);fillColor=none;align=left;verticalAlign=middle;spacingLeft=4;spacingRight=4;overflow=hidden;points=[[0,0.5],[1,0.5]];portConstraint=eastwest;rotatable=0;whiteSpace=wrap;html=1;" vertex="1" parent="H9SGIsv_MsNLZIggbhcU-11">
          <mxGeometry y="30" width="180" height="30" as="geometry" />
        </mxCell>
        <mxCell id="H9SGIsv_MsNLZIggbhcU-14" value="student_id int unsigned FK NN" style="text;strokeColor=none;fillColor=none;align=left;verticalAlign=middle;spacingLeft=4;spacingRight=4;overflow=hidden;points=[[0,0.5],[1,0.5]];portConstraint=eastwest;rotatable=0;whiteSpace=wrap;html=1;" vertex="1" parent="H9SGIsv_MsNLZIggbhcU-11">
          <mxGeometry y="60" width="180" height="30" as="geometry" />
        </mxCell>
        <mxCell id="H9SGIsv_MsNLZIggbhcU-13" value="group_id int unsigned FK NN" style="text;strokeColor=none;fillColor=none;align=left;verticalAlign=middle;spacingLeft=4;spacingRight=4;overflow=hidden;points=[[0,0.5],[1,0.5]];portConstraint=eastwest;rotatable=0;whiteSpace=wrap;html=1;" vertex="1" parent="H9SGIsv_MsNLZIggbhcU-11">
          <mxGeometry y="90" width="180" height="30" as="geometry" />
        </mxCell>
        <mxCell id="H9SGIsv_MsNLZIggbhcU-15" style="edgeStyle=orthogonalEdgeStyle;rounded=0;orthogonalLoop=1;jettySize=auto;html=1;exitX=0;exitY=0.5;exitDx=0;exitDy=0;entryX=0;entryY=0.5;entryDx=0;entryDy=0;" edge="1" parent="1" source="H9SGIsv_MsNLZIggbhcU-13" target="VDMWnQjMIZRb_93i3J9U-5">
          <mxGeometry relative="1" as="geometry" />
        </mxCell>
        <mxCell id="H9SGIsv_MsNLZIggbhcU-16" style="edgeStyle=orthogonalEdgeStyle;rounded=0;orthogonalLoop=1;jettySize=auto;html=1;exitX=1;exitY=0.5;exitDx=0;exitDy=0;entryX=0;entryY=0.5;entryDx=0;entryDy=0;" edge="1" parent="1" source="H9SGIsv_MsNLZIggbhcU-14" target="H9SGIsv_MsNLZIggbhcU-5">
          <mxGeometry relative="1" as="geometry" />
        </mxCell>
      </root>
    </mxGraphModel>
  </diagram>
</mxfile>
